<svg width="60" height="60" viewBox="0 0 60 60" fill="none" xmlns="http://www.w3.org/2000/svg">
<rect width="60" height="60" rx="15" fill="#578826"/>
<path d="M30 10C18.9721 10 10 18.9719 10 30C10 41.0281 18.9721 50.0002 30 50.0002C41.0279 50.0002 50 41.0281 50 30C50 18.9719 41.0281 10 30 10ZM41.4844 26.6218L28.9194 39.1868C28.3851 39.7211 27.6749 40.0151 26.9194 40.0151C26.164 40.0151 25.4538 39.7211 24.9195 39.1868L18.5156 32.783C17.9814 32.2487 17.6871 31.5385 17.6871 30.783C17.6871 30.0273 17.9814 29.3171 18.5156 28.7829C19.0497 28.2486 19.7599 27.9544 20.5156 27.9544C21.2711 27.9544 21.9815 28.2486 22.5155 28.7831L26.9192 33.1866L37.4841 22.6217C38.0183 22.0875 38.7285 21.7934 39.484 21.7934C40.2395 21.7934 40.9497 22.0875 41.4839 22.6217C42.5871 23.7249 42.5871 25.5191 41.4844 26.6218Z" fill="white"/>
</svg>
