<svg width="60" height="60" viewBox="0 0 60 60" fill="none" xmlns="http://www.w3.org/2000/svg">
<rect width="60" height="60" rx="15" fill="#F3A409"/>
<path d="M49.1236 29.247C48.9823 29.2173 48.8489 29.1894 48.7303 29.1585C47.3856 28.8089 46.7719 28.6172 46.3181 27.7411L44.5993 24.2611C44.0468 23.1947 42.6204 22.3271 41.4195 22.3271H38.3594V18.3086C38.3594 17.5871 37.7723 17 37.0506 17L15.7368 17.0214C15.0345 17.0214 14.5049 17.5795 14.5049 18.3196V19.5073H9.04489C7.91737 19.5074 7 20.4247 7 21.5523C7 22.6799 7.91737 23.5972 9.04489 23.5972H14.5048V25.5572H10.93C9.80251 25.5572 8.88514 26.4745 8.88514 27.6021C8.88514 28.7296 9.80251 29.647 10.93 29.647H14.5048V31.6069H12.8152C11.6876 31.6069 10.7703 32.5243 10.7703 33.6518C10.7703 34.7793 11.6876 35.6967 12.8152 35.6967H14.5048V37.7466C14.5048 38.4682 15.0919 39.0552 15.8134 39.0552H18.0305C18.3758 41.4217 20.4183 43.245 22.8793 43.245C25.3405 43.245 27.3831 41.4217 27.7285 39.0552H36.7012C36.7478 39.0552 36.7955 39.0521 36.8432 39.049C37.1859 41.4185 39.2296 43.245 41.6927 43.245C44.1539 43.245 46.1965 41.4217 46.5419 39.0552H49.7265C50.9801 39.0552 52 38.0354 52 36.7819V32.9244C51.9999 29.8505 50.2689 29.4873 49.1236 29.247ZM41.6927 36.5632C42.6754 36.5632 43.4748 37.3623 43.4748 38.3447C43.4748 39.3271 42.6754 40.1262 41.6927 40.1262C40.7105 40.1262 39.9113 39.3271 39.9113 38.3447C39.9113 37.3623 40.7105 36.5632 41.6927 36.5632ZM38.3594 28.9699V24.2249H40.6979C41.5967 24.2249 42.7055 24.8994 43.117 25.6935L44.6465 28.7902C44.6789 28.8528 44.7126 28.9126 44.7475 28.9698H38.3594V28.9699ZM24.6614 38.3446C24.6614 39.3269 23.862 40.1261 22.8793 40.1261C21.897 40.1261 21.098 39.327 21.098 38.3446C21.098 37.3622 21.897 36.5631 22.8793 36.5631C23.862 36.5632 24.6614 37.3623 24.6614 38.3446Z" fill="white"/>
</svg>
