<svg width="60" height="60" viewBox="0 0 60 60" fill="none" xmlns="http://www.w3.org/2000/svg">
<rect width="60" height="60" rx="15" fill="#D50A0A"/>
<g clip-path="url(#clip0)">
<path d="M30 23.3333C24.485 23.3333 20 27.8183 20 33.3333C20 38.8483 24.485 43.3333 30 43.3333C35.515 43.3333 40 38.8483 40 33.3333C40 27.8183 35.515 23.3333 30 23.3333ZM34.5117 35.4883C35.1633 36.14 35.1633 37.1933 34.5117 37.845C34.1867 38.17 33.76 38.3333 33.3333 38.3333C32.9067 38.3333 32.48 38.17 32.155 37.845L30 35.69L27.845 37.845C27.52 38.17 27.0933 38.3333 26.6667 38.3333C26.24 38.3333 25.8133 38.17 25.4883 37.845C24.8367 37.1933 24.8367 36.14 25.4883 35.4883L27.6433 33.3333L25.4883 31.1783C24.8367 30.5267 24.8367 29.4733 25.4883 28.8217C26.14 28.17 27.1933 28.17 27.845 28.8217L30 30.9767L32.155 28.8217C32.8067 28.17 33.86 28.17 34.5117 28.8217C35.1633 29.4733 35.1633 30.5267 34.5117 31.1783L32.3567 33.3333L34.5117 35.4883Z" fill="white"/>
<path d="M45 11.6667H15C12.2433 11.6667 10 13.91 10 16.6667V43.3333C10 46.09 12.2433 48.3333 15 48.3333H45C47.7567 48.3333 50 46.09 50 43.3333V16.6667C50 13.91 47.7567 11.6667 45 11.6667ZM45 45H15C14.0817 45 13.3333 44.2533 13.3333 43.3333V20H46.6667V43.3333C46.6667 44.2533 45.9183 45 45 45Z" fill="white"/>
</g>
<defs>
<clipPath id="clip0">
<rect width="40" height="40" fill="white" transform="translate(10 10)"/>
</clipPath>
</defs>
</svg>
