<svg width="60" height="60" viewBox="0 0 60 60" fill="none" xmlns="http://www.w3.org/2000/svg">
<rect width="60" height="60" rx="15" fill="#1D6080"/>
<path d="M38.1459 30.3266C38.0826 29.5259 37.3779 28.8645 36.5748 28.8522L31.2596 28.7707C30.9509 28.766 30.6379 28.4942 30.59 28.1892L29.4189 20.744C29.3765 20.4743 29.125 19.3747 27.7522 19.3747L21.1425 19.6625C20.2717 19.7004 19.5639 20.1237 19.5639 21.3119C19.5639 21.3119 19.536 37.86 19.5022 38.4597L19.2709 42.554C19.24 43.1008 19.027 43.9859 18.8057 44.4867L16.1304 50.5421C15.9538 50.9416 15.9567 51.3833 16.1384 51.7539C16.3201 52.1245 16.6674 52.3974 17.0914 52.5027L17.9821 52.7238C18.1147 52.7567 18.2534 52.7733 18.3944 52.7733C19.1134 52.7733 19.8011 52.3561 20.1059 51.735L22.649 46.5513C22.9299 45.9788 23.2795 45.0084 23.4284 44.3882L24.8634 38.4105L28.3361 43.7213C28.6224 44.1592 28.9252 44.9994 28.9839 45.5194L29.6553 51.4651C29.7508 52.3114 30.5216 53 31.3736 53L32.3893 52.9965C32.8251 52.995 33.2213 52.8211 33.505 52.5066C33.7886 52.1923 33.9213 51.7804 33.8782 51.3469L33.177 44.2779C33.1124 43.626 32.8782 42.636 32.644 42.0241L29.5322 33.8965L29.513 32.1831L36.7451 31.9154C37.1488 31.9005 37.5177 31.7276 37.7838 31.4287C38.0499 31.1298 38.1789 30.7434 38.1471 30.3402L38.1459 30.3266ZM31.3736 52.4992V52.4994V52.4992Z" fill="white"/>
<path d="M23.2554 17.8035C23.8118 17.8035 24.362 17.7086 24.8907 17.5213C26.1248 17.0846 27.1148 16.1934 27.6784 15.0119C28.0769 14.1765 28.2273 13.2667 28.1275 12.3692L29.7699 12.1839C30.3422 12.1193 30.9231 11.6628 31.1212 11.122L31.6713 9.61968C31.7887 9.29873 31.7578 8.97397 31.5863 8.7285C31.4191 8.48924 31.1374 8.35199 30.8134 8.35199C30.7759 8.35199 30.737 8.35379 30.6972 8.35759L25.9482 8.80929C25.1653 8.29362 24.2343 8 23.2549 8C22.6987 8 22.1487 8.0948 21.6198 8.28191C20.3859 8.71889 19.3959 9.61017 18.8322 10.7917C18.2684 11.9732 18.1987 13.3033 18.6356 14.5371C19.3275 16.4908 21.184 17.8035 23.2554 17.8035Z" fill="white"/>
<path d="M44.005 25.4737L43.5324 18.6819C43.4763 17.8753 42.7729 17.2192 41.9616 17.2192L32.8827 17.235C32.4763 17.2357 32.1027 17.397 31.8307 17.6891C31.5588 17.9811 31.4244 18.3652 31.4528 18.7708L31.9253 25.5626C31.9814 26.3691 32.6848 27.0253 33.4934 27.0253L42.575 27.0094C42.9814 27.0087 43.355 26.8476 43.627 26.5554C43.8989 26.2633 44.0332 25.8791 44.005 25.4737Z" fill="white"/>
</svg>
