<svg width="60" height="60" viewBox="0 0 60 60" fill="none" xmlns="http://www.w3.org/2000/svg">
<rect width="60" height="60" rx="15" fill="#322153"/>
<g clip-path="url(#clip0)">
<path d="M30 23.3333C24.485 23.3333 20 27.8183 20 33.3333C20 38.8483 24.485 43.3333 30 43.3333C35.515 43.3333 40 38.8483 40 33.3333C40 27.8183 35.515 23.3333 30 23.3333ZM35.3683 31.9883L29.7633 37.8217C29.4367 38.1617 28.9983 38.3333 28.5617 38.3333C28.1583 38.3333 27.755 38.1883 27.435 37.895L24.7067 35.395C24.0283 34.7733 23.9817 33.7183 24.6033 33.04C25.2267 32.3617 26.2783 32.315 26.9583 32.9367L28.4867 34.3367L32.965 29.6767C33.6033 29.015 34.6567 28.9917 35.3217 29.63C35.985 30.27 36.0067 31.3233 35.3683 31.9883Z" fill="white"/>
<path d="M45 11.6667H15C12.2433 11.6667 10 13.91 10 16.6667V43.3333C10 46.09 12.2433 48.3333 15 48.3333H45C47.7567 48.3333 50 46.09 50 43.3333V16.6667C50 13.91 47.7567 11.6667 45 11.6667ZM45 45H15C14.0817 45 13.3333 44.2533 13.3333 43.3333V20H46.6667V43.3333C46.6667 44.2533 45.9183 45 45 45Z" fill="white"/>
</g>
<defs>
<clipPath id="clip0">
<rect width="40" height="40" fill="white" transform="translate(10 10)"/>
</clipPath>
</defs>
</svg>
